<svg width="106" height="34" viewBox="0 0 106 34" fill="none" xmlns="http://www.w3.org/2000/svg">
<path d="M18.9336 14.3457V12.0957C18.9219 11.1582 18.8398 10.209 18.6875 9.24805C18.5352 8.27539 18.3066 7.34375 18.002 6.45312C17.6855 5.5625 17.2812 4.73047 16.7891 3.95703C16.3086 3.17187 15.7344 2.49219 15.0664 1.91797C14.3867 1.34375 13.6074 0.892578 12.7285 0.564453C11.8613 0.224609 10.8828 0.0546875 9.79297 0.0546875C8.70312 0.0546875 7.71875 0.224609 6.83984 0.564453C5.97266 0.892578 5.20508 1.34375 4.53711 1.91797C3.85742 2.50391 3.27734 3.18945 2.79688 3.97461C2.31641 4.74805 1.91797 5.58008 1.60156 6.4707C1.28516 7.36133 1.05078 8.28711 0.898438 9.24805C0.746094 10.209 0.664062 11.1582 0.652344 12.0957V14.3457C0.664062 15.2832 0.746094 16.2324 0.898438 17.1934C1.05078 18.1426 1.28516 19.0625 1.60156 19.9531C1.91797 20.8438 2.32227 21.6816 2.81445 22.4668C3.30664 23.2402 3.89258 23.9141 4.57227 24.4883C5.24023 25.0625 6.00781 25.5195 6.875 25.8594C7.74219 26.1875 8.7207 26.3516 9.81055 26.3516C10.2324 26.3516 10.6367 26.3223 11.0234 26.2637C11.4219 26.2168 11.8027 26.1406 12.166 26.0352L17.2285 30.3242L19.4609 28.1973L15.0488 24.5234C15.7285 23.9492 16.3086 23.2754 16.7891 22.502C17.2812 21.7168 17.6855 20.8789 18.002 19.9883C18.3066 19.0977 18.5352 18.1719 18.6875 17.2109C18.8398 16.25 18.9219 15.2949 18.9336 14.3457ZM15.6992 12.0605V14.3457C15.6875 14.9902 15.6465 15.6641 15.5762 16.3672C15.5176 17.0586 15.4062 17.7441 15.2422 18.4238C15.0664 19.1035 14.8379 19.748 14.5566 20.3574C14.2754 20.9668 13.918 21.5 13.4844 21.957C13.0508 22.4258 12.5293 22.8008 11.9199 23.082C11.3223 23.3516 10.6191 23.4863 9.81055 23.4863C9.01367 23.4863 8.31055 23.3516 7.70117 23.082C7.10352 22.8008 6.58789 22.4258 6.1543 21.957C5.7207 21.4883 5.35742 20.9492 5.06445 20.3398C4.7832 19.7305 4.55469 19.0859 4.37891 18.4062C4.20312 17.7266 4.07422 17.041 3.99219 16.3496C3.92188 15.6465 3.88672 14.9785 3.88672 14.3457V12.0605C3.88672 11.4277 3.92188 10.7656 3.99219 10.0742C4.07422 9.37109 4.20312 8.67969 4.37891 8C4.55469 7.33203 4.7832 6.69336 5.06445 6.08398C5.35742 5.47461 5.7207 4.93555 6.1543 4.4668C6.58789 4.00977 7.10352 3.64648 7.70117 3.37695C8.29883 3.0957 8.99609 2.95508 9.79297 2.95508C10.6016 2.95508 11.3047 3.08984 11.9023 3.35938C12.5117 3.62891 13.0332 3.99219 13.4668 4.44922C13.9004 4.91797 14.2578 5.45703 14.5391 6.06641C14.832 6.67578 15.0664 7.31445 15.2422 7.98242C15.4062 8.66211 15.5176 9.35352 15.5762 10.0566C15.6465 10.748 15.6875 11.416 15.6992 12.0605ZM36.2129 26H39.166V6.98047H35.8965V20.6211C35.7207 21.0312 35.498 21.4121 35.2285 21.7637C34.9707 22.1035 34.666 22.3965 34.3145 22.6426C33.8926 22.9473 33.3945 23.1875 32.8203 23.3633C32.2461 23.5273 31.5957 23.6094 30.8691 23.6094C30.248 23.6094 29.6973 23.5273 29.2168 23.3633C28.748 23.1992 28.3496 22.9121 28.0215 22.502C27.6934 22.1035 27.4473 21.5645 27.2832 20.8848C27.1191 20.2051 27.0371 19.3496 27.0371 18.3184V6.98047H23.7852V18.2832C23.7852 19.7012 23.9375 20.9199 24.2422 21.9395C24.5586 22.9473 25.0039 23.7793 25.5781 24.4355C26.1523 25.0918 26.8438 25.5781 27.6523 25.8945C28.4609 26.1992 29.3633 26.3516 30.3594 26.3516C31.6016 26.3516 32.6973 26.0938 33.6465 25.5781C34.5957 25.0508 35.3867 24.3184 36.0195 23.3809L36.2129 26ZM45.8105 6.98047V9.81055H52.2793V23.1875H45.8105V26H61.7363V23.1875H55.5312V6.98047H45.8105ZM51.8574 1.98828C51.8574 2.51562 52.0156 2.95508 52.332 3.30664C52.6602 3.6582 53.1523 3.83398 53.8086 3.83398C54.4531 3.83398 54.9395 3.6582 55.2676 3.30664C55.5957 2.95508 55.7598 2.51562 55.7598 1.98828C55.7598 1.69531 55.7129 1.42578 55.6191 1.17969C55.5254 0.933594 55.3848 0.728516 55.1973 0.564453C55.0449 0.412109 54.8516 0.294922 54.6172 0.212891C54.3828 0.119141 54.1133 0.0722656 53.8086 0.0722656C53.5039 0.0722656 53.2285 0.119141 52.9824 0.212891C52.748 0.294922 52.5547 0.412109 52.4023 0.564453C52.2148 0.740234 52.0742 0.951172 51.9805 1.19727C51.8984 1.44336 51.8574 1.70703 51.8574 1.98828ZM70.8242 23.3457L82.3027 9.2832V6.98047H66.834V9.66992H78.0312L66.6758 23.6094V26H82.9355V23.3457H70.8242ZM90.0723 33.6816C90.9277 33.6816 91.6836 33.5234 92.3398 33.207C92.9961 32.8906 93.5703 32.498 94.0625 32.0293C94.5547 31.5605 94.9707 31.0508 95.3105 30.5C95.6621 29.9492 95.9492 29.4277 96.1719 28.9355L105.822 6.98047H102.184L97.2793 19.3203L96.3828 21.5527L95.5391 19.25L90.3184 6.98047H86.6797L94.8711 25.1035L93.5703 27.6348C93.4531 27.8691 93.2891 28.168 93.0781 28.5312C92.8789 28.8945 92.6387 29.2461 92.3574 29.5859C92.0645 29.9258 91.7305 30.2188 91.3555 30.4648C90.9922 30.7109 90.5879 30.834 90.1426 30.834C89.9785 30.834 89.75 30.8223 89.457 30.7988C89.1758 30.7871 88.8887 30.7695 88.5957 30.7461L88.0684 33.4004C88.2793 33.4473 88.5898 33.5059 89 33.5762C89.4102 33.6465 89.7676 33.6816 90.0723 33.6816Z" fill="white"/>
</svg>
